<svg xmlns="http://www.w3.org/2000/svg" viewBox="0 0 720 120" fill="none">
  <defs>
    <linearGradient id="acPathBg" x1="0%" y1="0%" x2="100%" y2="100%">
      <stop offset="0%" stop-color="#0a0e17"/>
      <stop offset="100%" stop-color="#0f1628"/>
    </linearGradient>
  </defs>
  <rect width="720" height="120" fill="url(#acPathBg)"/>
  <!-- Step pills -->
  <g font-family="Inter, system-ui, sans-serif" font-size="12" font-weight="500">
    <rect x="12" y="36" width="88" height="36" rx="8" fill="#1e2d4a" stroke="#00b4d8" stroke-width="1.5" opacity="0.9"/>
    <text x="56" y="59" text-anchor="middle" fill="#c4c8d0">Main menu</text>
    <path d="M108 54 L118 54" stroke="#00b4d8" stroke-width="2" stroke-linecap="round"/>
    <polygon points="118,50 122,54 118,58" fill="#00b4d8"/>
    <rect x="130" y="36" width="88" height="36" rx="8" fill="#1e2d4a" stroke="#00b4d8" stroke-width="1.5" opacity="0.9"/>
    <text x="174" y="59" text-anchor="middle" fill="#c4c8d0">Game Modes</text>
    <path d="M226 54 L236 54" stroke="#00b4d8" stroke-width="2" stroke-linecap="round"/>
    <polygon points="236,50 240,54 236,58" fill="#00b4d8"/>
    <rect x="248" y="36" width="120" height="36" rx="8" fill="#1e2d4a" stroke="#00b4d8" stroke-width="1.5" opacity="0.9"/>
    <text x="308" y="59" text-anchor="middle" fill="#c4c8d0">Arena Commander</text>
    <path d="M376 54 L386 54" stroke="#00b4d8" stroke-width="2" stroke-linecap="round"/>
    <polygon points="386,50 390,54 386,58" fill="#00b4d8"/>
    <rect x="394" y="36" width="72" height="36" rx="8" fill="#1e2d4a" stroke="#00b4d8" stroke-width="1.5" opacity="0.9"/>
    <text x="430" y="59" text-anchor="middle" fill="#c4c8d0">Offline</text>
    <path d="M474 54 L484 54" stroke="#00b4d8" stroke-width="2" stroke-linecap="round"/>
    <polygon points="484,50 488,54 484,58" fill="#00b4d8"/>
    <rect x="492" y="36" width="96" height="36" rx="8" fill="#00b4d8" fill-opacity="0.2" stroke="#00b4d8" stroke-width="1.5"/>
    <text x="540" y="59" text-anchor="middle" fill="#48cae4" font-weight="600">Free Flight</text>
  </g>
  <text x="360" y="100" text-anchor="middle" fill="#8892a4" font-family="Inter, system-ui, sans-serif" font-size="10">AC path  no city load, instant access</text>
</svg>
