<svg xmlns="http://www.w3.org/2000/svg" viewBox="0 0 640 360" fill="none">
  <defs>
    <linearGradient id="bg" x1="0%" y1="0%" x2="100%" y2="100%"><stop offset="0%" stop-color="#0a0e17"/><stop offset="100%" stop-color="#0f1628"/></linearGradient>
  </defs>
  <rect width="640" height="360" fill="url(#bg)"/>
  <rect x="260" y="90" width="50" height="70" rx="6" stroke="#00b4d8" stroke-width="2" fill="none" opacity="0.8"/>
  <rect x="265" y="95" width="40" height="20" rx="3" fill="#00b4d8" fill-opacity="0.2" opacity="0.6"/>
  <rect x="265" y="120" width="40" height="20" rx="3" fill="#00b4d8" fill-opacity="0.2" opacity="0.6"/>
  <rect x="330" y="90" width="50" height="70" rx="6" stroke="#00b4d8" stroke-width="2" fill="none" opacity="0.8"/>
  <rect x="335" y="95" width="40" height="20" rx="3" fill="#00b4d8" fill-opacity="0.2" opacity="0.6"/>
  <rect x="335" y="120" width="40" height="20" rx="3" fill="#00b4d8" fill-opacity="0.1" opacity="0.4"/>
  <path d="M310 120 L330 130 M310 130 L330 120" stroke="#00b4d8" stroke-width="1.5" stroke-linecap="round" opacity="0.5"/>
  <path d="M295 180 L295 195 L345 195 L345 180" stroke="#00b4d8" stroke-width="2" fill="none" stroke-linecap="round" stroke-linejoin="round" opacity="0.6"/>
  <path d="M310 195 L310 210 M330 195 L330 210" stroke="#00b4d8" stroke-width="1.5" opacity="0.4"/>
  <text x="320" y="250" text-anchor="middle" fill="#8892a4" font-family="system-ui,sans-serif" font-size="14" font-weight="600">INVENTORY & RISK</text>
</svg>
